<svg width="1440" height="200" viewBox="0 0 1440 200" xmlns="http://www.w3.org/2000/svg">
  <path fill="#ffffff" fill-opacity="0.4" d="M0,160L48,144C96,128,192,96,288,90.7C384,85,480,107,576,128C672,149,768,171,864,165.3C960,160,1056,128,1152,117.3C1248,107,1344,117,1392,122.7L1440,128L1440,0L1392,0C1344,0,1248,0,1152,0C1056,0,960,0,864,0C768,0,672,0,576,0C480,0,384,0,288,0C192,0,96,0,48,0L0,0Z"></path>
  <path fill="#ffffff" fill-opacity="0.2" d="M0,160L48,138.7C96,117,192,75,288,64C384,53,480,75,576,101.3C672,128,768,160,864,165.3C960,171,1056,149,1152,133.3C1248,117,1344,107,1392,101.3L1440,96L1440,0L1392,0C1344,0,1248,0,1152,0C1056,0,960,0,864,0C768,0,672,0,576,0C480,0,384,0,288,0C192,0,96,0,48,0L0,0Z"></path>
</svg>

