<?xml version="1.0" encoding="utf-8"?>
<svg height="300.24" style="max-height: 500px" version="1.1" viewBox="65.88 65.88 304.56 300.24" width="304.56" xmlns="http://www.w3.org/2000/svg" xmlns:xlink="http://www.w3.org/1999/xlink">
<defs>
<clipPath id="clip_0">
<path d="M0 540H432V0H0Z" transform="matrix(1,0,0,-1,0,540)"/>
</clipPath>
</defs>
<text fill="white" font-family="Gotham" font-size="34.2" font-weight="bold" transform="matrix(1 0 -0 1 0 540)" xml:space="preserve"><tspan x="71.9365 93.831348 116.55041 139.18398 163.8969 174.9093 201.62976 222.21817 233.53838 255.16303 276.84584 299.75984 310.0198 336.61714" y="-111.8604">SPÉCIALISTE DU</tspan></text>
<text fill="white" font-family="Gotham" font-size="41" font-weight="bold" transform="matrix(1 0 -0 1 0 540)" xml:space="preserve"><tspan x="71.9365 101.559 129.11101 159.4059 186.74469 212.61569 240.31119 275.96479 303.66029 335.35328" y="-68.8604">REVÊTEMENT</tspan></text>
<path d="M0 0H219.056L228.063 8.915 253.528 34.472H-34.472V-18.456H0Z" fill="#339fe6" transform="matrix(1,0,0,-1,107.371,106.888797)"/>
<path d="M0 0H-219.056L-228.063-8.915-253.528-34.472H34.472V18.456H0Z" fill="#339fe6" transform="matrix(1,0,0,-1,326.4268,325.94459)"/>
<g clip-path="url(#clip_0)">
<path d="M0 0C5.896 0 10.438 1.327 13.622 3.98 16.806 6.634 18.397 10.199 18.397 14.683V15.037C18.397 19.99 16.745 23.674 13.444 26.093 10.142 28.508 5.601 29.719-.177 29.719H-22.644V0ZM-56.962 59.438H1.593C11.146 59.438 19.222 58.258 25.827 55.9 32.431 53.54 37.796 50.24 41.926 45.994 49.237 38.918 52.894 29.305 52.894 17.159V16.805C52.894 7.253 50.594-.65 45.995-6.899 41.396-13.152 35.204-17.928 27.42-21.229L56.962-64.392H17.337L-7.606-26.889H-7.96-22.644V-64.392H-56.962Z" fill="#ffffff" transform="matrix(1,0,0,-1,129.8259,216.65882)"/>
<path d="M0 0 46.348 35.38C52.125 39.861 56.224 43.752 58.643 47.056 61.058 50.356 62.269 53.894 62.269 57.669 62.269 61.562 61 64.627 58.466 66.868 55.929 69.107 52.598 70.229 48.471 70.229 44.341 70.229 40.422 68.961 36.706 66.426 32.991 63.889 22.42 54.702 16.934 49.051L.708 73.591C4.008 77.836 7.368 81.609 10.791 84.912 14.21 88.212 17.895 90.985 21.847 93.227 25.797 95.465 30.161 97.176 34.938 98.357 39.714 99.534 45.109 100.126 51.124 100.126 57.847 100.126 64.007 99.153 69.61 97.207 75.21 95.261 80.017 92.577 84.028 89.158 88.036 85.736 91.161 81.579 93.403 76.687 95.643 71.791 96.765 66.454 96.765 60.677V60.323C96.765 55.37 96.145 50.947 94.907 47.056 93.669 43.164 91.812 39.537 89.335 36.176 86.858 32.815 83.851 29.601 80.313 26.535 76.774 23.467 72.706 20.283 68.106 16.982L46.878 2.123H88.052L107.129-25.828H0Z" fill="#ffffff" transform="matrix(1,0,0,-1,186.785,255.2233)"/>
<path d="M0 0C0 2.124-.502 3.789-1.509 4.994-2.515 6.198-3.88 6.802-5.605 6.802H-5.729C-7.576 6.802-8.983 6.198-9.949 4.994-10.914 3.789-11.396 2.104-11.396-.061V-5.637H0ZM-21.323-17.525V.858C-21.323 3.554-20.986 6.005-20.312 8.211-19.638 10.417-18.657 12.295-17.371 13.848-16.084 15.4-14.501 16.595-12.622 17.433-10.742 18.27-8.618 18.689-6.249 18.689H-6.127C-3.594 18.689-1.368 18.229 .552 17.311 2.473 16.391 4.086 15.114 5.393 13.48 6.7 11.846 7.681 9.896 8.334 7.629 8.988 5.362 9.314 2.9 9.314 .245V-5.637H21.569V-17.525Z" fill="#ffffff" transform="matrix(1,0,0,-1,342.987,263.5666)"/>
<path d="M0 0C0 2.042-.459 3.615-1.378 4.718-2.297 5.821-3.532 6.373-5.085 6.373H-5.208C-6.924 6.373-8.199 5.8-9.037 4.657-9.874 3.513-10.294 1.939-10.294-.062V-7.843H0ZM-20.588-19.731V.551C-20.588 3.86-20.179 6.658-19.362 8.946-18.545 11.233-17.401 13.092-15.931 14.522-13.479 17.055-10.15 18.321-5.943 18.321H-5.82C-2.512 18.321 .226 17.525 2.391 15.932 4.556 14.338 6.21 12.194 7.354 9.498L22.305 19.73V6.005L9.314-2.635V-2.757-7.843H22.305V-19.731Z" fill="#ffffff" transform="matrix(1,0,0,-1,342.2516,221.97962)"/>
<path d="M0 0C0 1.638-.307 3.134-.919 4.485-1.532 5.837-2.359 6.984-3.4 7.926-4.442 8.869-5.657 9.606-7.047 10.138-8.435 10.67-9.905 10.938-11.459 10.938H-11.581C-13.133 10.938-14.604 10.67-15.993 10.138-17.381 9.606-18.606 8.848-19.669 7.865-20.731 6.882-21.578 5.715-22.212 4.363-22.845 3.011-23.162 1.516-23.162-.123-23.162-1.762-22.855-3.247-22.243-4.578-21.63-5.909-20.803-7.056-19.761-8.02-18.72-8.982-17.504-9.72-16.115-10.231-14.727-10.743-13.256-10.999-11.704-10.999H-11.581C-10.028-10.999-8.558-10.733-7.169-10.201-5.78-9.668-4.555-8.92-3.493-7.957-2.43-6.995-1.583-5.837-.95-4.486-.316-3.134 0-1.639 0 0M10.723-.092C10.723-3.401 10.141-6.465 8.977-9.283 7.812-12.102 6.229-14.533 4.228-16.575 2.227-18.618-.123-20.221-2.818-21.385-5.515-22.549-8.395-23.131-11.459-23.131H-11.581C-14.645-23.131-17.534-22.549-20.251-21.385-22.968-20.221-25.337-18.597-27.359-16.514-29.382-14.43-30.975-11.979-32.139-9.161-33.303-6.342-33.885-3.278-33.885 .031-33.885 3.339-33.303 6.403-32.139 9.222-30.975 12.041-29.391 14.471-27.39 16.514-25.388 18.556-23.039 20.16-20.343 21.324-17.647 22.488-14.768 23.07-11.704 23.07H-11.581C-8.518 23.07-5.627 22.488-2.911 21.324-.193 20.16 2.175 18.536 4.197 16.452 6.22 14.369 7.812 11.918 8.977 9.099 10.141 6.281 10.723 3.217 10.723-.092" fill="#ffffff" transform="matrix(1,0,0,-1,354.6911,178.22919)"/>
</g>
</svg>